<svg width="126" height="32" viewBox="0 0 126 32" fill="none" xmlns="http://www.w3.org/2000/svg">
  <g clip-path="url(#clip0_1549_60292)">
    <path d="M19.5997 11.522C19.5997 11.522 27.3083 0.778009 35.4491 0.778009C38.1503 0.778009 39.9973 2.05891 40.1763 3.84676C40.3721 5.68531 39.2916 7.96997 35.6315 7.73002C33.0619 7.56441 24.1175 6.07059 18.4449 16.4597C18.4449 16.4597 18.06 9.70037 14.5383 5.73262C12.6711 3.62708 12.85 1.677 14.7307 0.521153C14.7307 0.521153 17.8642 -1.07406 18.8332 3.73185C19.2688 5.88471 19.934 9.27115 19.5997 11.522Z" fill="#5AE2E0"/>
    <path d="M17.4591 20.8126C17.4591 20.8126 22.5239 9.06484 36.5905 10.9575C38.9541 11.2751 40.4938 12.8906 40.2811 15.2497C40.0414 17.9095 36.9991 18.5212 34.3857 17.8047C25.5425 15.3781 21.852 16.4832 16.7163 24.0909C15.0483 14.7292 9.14273 13.357 7.28564 10.5181C6.688 9.60897 6.34021 7.92588 7.39369 6.9086C7.88977 6.40248 8.55375 6.09556 9.26036 6.04575C9.96698 5.99594 10.6674 6.20669 11.2294 6.63823C13.6301 8.53085 17.0506 16.3954 17.4591 20.8126Z" fill="#E4002B"/>
    <path d="M15.18 32.0501C15.18 32.0501 15.575 22.56 3.32159 18.6801C1.40373 18.065 0.225316 15.7736 1.0627 14.1783C1.86631 12.6474 4.10157 12.3533 6.16125 13.3875C13.4546 17.0612 15.9059 27.4166 15.9059 27.4166C22.0343 18.332 31.5899 19.5182 35.7903 20.5997C40.0954 21.7049 40.7572 24.51 40.0413 26.4162C39.366 28.2547 36.9653 29.4207 32.7109 27.251C32.3327 27.0854 20.7884 20.8465 15.18 32.0501Z" fill="#006875"/>
    <path d="M57.6971 0.112183H60.0607V12.8739H57.5655V4.08669L54.0539 8.88246H53.6352L50.0966 4.08669V12.8739H47.6216V0.112183H49.9683L53.8682 5.47236L57.6971 0.112183Z" fill="#006875"/>
    <path d="M61.6409 8.1693C61.6409 5.27291 63.6972 3.26538 66.4659 3.26538C69.2347 3.26538 71.3281 5.27291 71.3281 8.1693C71.3281 11.0657 69.2684 13.0935 66.4659 13.0935C63.6634 13.0935 61.6409 11.086 61.6409 8.1693ZM68.924 8.1693C68.924 6.38483 67.8672 5.36416 66.4659 5.36416C65.0647 5.36416 64.045 6.37807 64.045 8.1693C64.045 9.96053 65.0815 11.0116 66.4659 11.0116C67.8503 11.0116 68.924 9.97405 68.924 8.1693Z" fill="#006875"/>
    <path d="M77.9632 3.26538V5.78324H76.9806C75.8866 5.78324 75.1033 6.56733 75.1033 7.94962V12.8738H72.7566V3.48506H75.1033V4.83693C75.2956 4.36906 75.6235 3.9696 76.0448 3.69008C76.4661 3.41056 76.9614 3.26381 77.4668 3.26876L77.9632 3.26538Z" fill="#006875"/>
    <path d="M84.5947 5.36401H82.5113V9.50074C82.5113 10.393 82.876 10.8526 83.6053 10.8526H84.6183V12.8804H83.3251C81.3228 12.8804 80.1748 11.6232 80.1748 9.61565V5.36401H78.4629V3.48491H80.1478V1.68016L82.5113 0.385742V3.48491H84.6048L84.5947 5.36401Z" fill="#006875"/>
    <path d="M92.0667 3.48527H94.4302V11.6506C94.4302 14.5504 92.482 16.2267 89.6221 16.2267C88.7372 16.2427 87.8659 16.0082 87.1084 15.5502C86.3509 15.0922 85.7381 14.4293 85.3406 13.6378L87.0897 12.4718C87.6367 13.4858 88.5652 14.1617 89.6761 14.1617C90.9862 14.1617 92.0802 13.3776 92.0802 11.7723V10.6739C91.7942 11.137 91.3909 11.5161 90.9111 11.7726C90.4312 12.029 89.8921 12.1537 89.3486 12.1339C87.0356 12.1339 85.3237 10.2176 85.3237 7.70312C85.3237 5.18863 87.0356 3.27235 89.3486 3.27235C89.8941 3.25217 90.4351 3.37848 90.9155 3.63819C91.3958 3.89789 91.7979 4.28152 92.0802 4.74928L92.0667 3.48527ZM92.1038 7.69636C92.1038 6.29379 91.1921 5.33058 89.9158 5.33058C88.6395 5.33058 87.6941 6.28027 87.6941 7.69636C87.6941 9.11244 88.6057 10.0621 89.9158 10.0621C91.2259 10.0621 92.1038 9.09893 92.1038 7.69636Z" fill="#006875"/>
    <path d="M104.347 6.95599V12.8738H102.162V11.9613C101.595 12.7082 100.633 13.0935 99.3937 13.0935C97.2091 13.0935 95.7673 11.9985 95.7673 10.1566C95.7673 8.38898 97.2631 7.23989 99.5558 7.23989C100.445 7.19121 101.318 7.48509 101.997 8.06115V7.20271C101.997 5.94547 101.268 5.36416 100.049 5.36416C99.5837 5.34525 99.1255 5.48179 98.7465 5.75225C98.3674 6.02271 98.0891 6.41172 97.9553 6.85798L96.0172 6.03672C96.652 4.04947 98.293 3.26538 100.15 3.26538C102.399 3.26538 104.347 4.43475 104.347 6.95599ZM102.051 10.1295C102.051 9.32515 101.268 8.87227 100.123 8.87227C98.9784 8.87227 98.1917 9.32515 98.1917 10.1295C98.1917 10.9339 98.975 11.3699 100.123 11.3699C101.271 11.3699 102.051 10.9406 102.051 10.1397V10.1295Z" fill="#006875"/>
    <path d="M112.438 3.48524H114.801V11.6505C114.801 14.5503 112.853 16.2266 109.993 16.2266C109.108 16.2427 108.237 16.0082 107.479 15.5502C106.722 15.0921 106.109 14.4292 105.711 13.6378L107.461 12.4718C108.008 13.4857 108.936 14.1617 110.047 14.1617C111.36 14.1617 112.451 13.3776 112.451 11.7722V10.6738C112.165 11.1372 111.762 11.5165 111.282 11.773C110.802 12.0295 110.263 12.154 109.719 12.1338C107.406 12.1338 105.695 10.2176 105.695 7.70308C105.695 5.1886 107.406 3.27232 109.719 3.27232C110.265 3.24997 110.807 3.37535 111.288 3.63526C111.769 3.89518 112.17 4.28001 112.451 4.74924L112.438 3.48524ZM112.475 7.69632C112.475 6.29375 111.563 5.33054 110.29 5.33054C109.017 5.33054 108.068 6.28023 108.068 7.69632C108.068 9.11241 108.98 10.0621 110.29 10.0621C111.6 10.0621 112.475 9.09889 112.475 7.69632Z" fill="#006875"/>
    <path d="M125.194 8.69991H118.579C118.728 10.356 119.592 11.086 120.805 11.086C121.915 11.086 122.716 10.5756 123.205 9.30149L125.194 10.0281C124.919 10.9441 124.347 11.7424 123.569 12.2974C122.791 12.8524 121.85 13.1325 120.896 13.0935C118.127 13.0935 116.196 11.1231 116.196 8.1693C116.196 5.21546 118.09 3.26538 120.784 3.26538C123.391 3.26538 125.211 5.23574 125.211 8.1524C125.211 8.30787 125.211 8.53431 125.194 8.69991ZM118.64 7.09456H122.81C122.557 5.76297 121.797 5.16138 120.784 5.16138C119.653 5.16138 118.91 5.80014 118.64 7.09456Z" fill="#006875"/>
    <path d="M46.9734 25.2336C46.9734 21.3131 49.6307 18.6331 53.3652 18.6331C56.1137 18.6331 58.2476 20.0897 59.0647 22.6887L56.789 23.5268C56.2251 21.9046 55.0028 20.9008 53.3652 20.9008C51.1603 20.9008 49.5767 22.5231 49.5767 25.2234C49.5767 27.9238 51.1603 29.5427 53.3652 29.5427C55.0028 29.5427 56.2251 28.5288 56.789 26.9167L59.0647 27.7548C58.2476 30.3639 56.1137 31.8104 53.3652 31.8104C49.6307 31.8307 46.9734 29.1506 46.9734 25.2336Z" fill="#006875"/>
    <path d="M68.4716 25.5612V31.6277H66.1081V25.96C66.1081 24.7399 65.4159 24.0471 64.4671 24.0471C63.3562 24.0471 62.556 24.794 62.556 26.0749V31.6277H60.1924V18.8525H62.556V23.4455C62.805 22.9882 63.178 22.6105 63.6319 22.3558C64.0858 22.1011 64.6024 21.9798 65.1221 22.0058C67.0501 22.0058 68.4716 23.4084 68.4716 25.5612Z" fill="#006875"/>
    <path d="M69.8054 26.8961C69.8054 23.9963 71.8617 21.9922 74.6305 21.9922C77.3992 21.9922 79.4927 23.9963 79.4927 26.8961C79.4927 29.7959 77.4465 31.8304 74.6305 31.8304C71.8145 31.8304 69.8054 29.8263 69.8054 26.8961ZM77.0886 26.8961C77.0886 25.1083 76.0317 24.0876 74.6305 24.0876C73.2292 24.0876 72.2095 25.1015 72.2095 26.8961C72.2095 28.6907 73.2461 29.7384 74.6305 29.7384C76.0149 29.7384 77.0886 28.7144 77.0886 26.8961Z" fill="#006875"/>
    <path d="M80.5935 19.7447C80.6119 19.356 80.7791 18.9892 81.0604 18.7206C81.3418 18.452 81.7157 18.3021 82.1045 18.3021C82.4933 18.3021 82.8672 18.452 83.1486 18.7206C83.4299 18.9892 83.5971 19.356 83.6155 19.7447C83.6155 20.6369 82.9402 21.1473 82.1028 21.1473C81.2654 21.1473 80.5935 20.6369 80.5935 19.7447ZM83.2711 22.222V31.6277H80.9075V22.222H83.2711Z" fill="#006875"/>
    <path d="M84.6926 26.8961C84.6926 23.9592 86.7185 21.9922 89.3928 21.9922C91.4659 21.9922 93.2521 23.0298 93.87 25.3279L91.7935 26.0748C91.341 24.6351 90.5745 24.0707 89.3928 24.0707C88.211 24.0707 87.1136 25.0001 87.1136 26.8961C87.1136 28.7921 88.2076 29.7215 89.3928 29.7215C90.5779 29.7215 91.341 29.174 91.7935 27.7343L93.87 28.4812C93.2521 30.7794 91.4659 31.8169 89.3928 31.8169C86.7321 31.8304 84.6926 29.8432 84.6926 26.8961Z" fill="#006875"/>
    <path d="M103.658 27.4369H97.0303C97.1789 29.0963 98.0433 29.8263 99.2554 29.8263C100.363 29.8263 101.167 29.316 101.656 28.0385L103.645 28.7685C103.37 29.6841 102.798 30.4821 102.02 31.0365C101.242 31.5909 100.301 31.8702 99.3466 31.8305C96.5779 31.8305 94.6465 29.8635 94.6465 26.9097C94.6465 23.9558 96.5407 22.0057 99.2352 22.0057C101.838 22.0057 103.662 23.9727 103.662 26.8894C103.675 27.055 103.675 27.2747 103.658 27.4369ZM97.1181 25.8349H101.288C101.035 24.5033 100.275 23.9017 99.2622 23.9017C98.1007 23.9017 97.368 24.5304 97.1181 25.8349Z" fill="#006875"/>
  </g>
  <defs>
    <clipPath id="clip0_1549_60292">
      <rect width="126" height="32" fill="white"/>
    </clipPath>
  </defs>
</svg>
